HIERARCHY
ROOT Hips
{
	OFFSET 51.902401 -8.451415 96.093697
	CHANNELS 6 Xposition Yposition Zposition Xrotation Yrotation Zrotation
	JOINT spine
	{
		OFFSET 0.000000 -0.467661 8.132492
		CHANNELS 3 Xrotation Yrotation Zrotation
		JOINT spine1
		{
			OFFSET 0.000000 -0.000002 10.349800
			CHANNELS 3 Xrotation Yrotation Zrotation
			JOINT spine2
			{
				OFFSET 0.000000 -0.000001 9.916992
				CHANNELS 3 Xrotation Yrotation Zrotation
				JOINT Neck
				{
					OFFSET 0.000000 -1.213904 25.460999
					CHANNELS 3 Xrotation Yrotation Zrotation
					JOINT Head
					{
						OFFSET 0.000000 -0.000001 7.692444
						CHANNELS 3 Xrotation Yrotation Zrotation
						End Site
						{
							OFFSET 0.000000 6.140627 18.619995
						}
					}
				}
				JOINT RightShoulder
				{
					OFFSET -4.175751 0.581443 10.709595
					CHANNELS 3 Xrotation Yrotation Zrotation
					JOINT RightArm
					{
						OFFSET 0.000000 -0.000002 14.046600
						CHANNELS 3 Xrotation Yrotation Zrotation
						JOINT RightArmRoll
						{
							OFFSET 0.000000 -0.000002 7.090973
							CHANNELS 3 Xrotation Yrotation Zrotation
							JOINT RightForeArm
							{
								OFFSET 0.000000 -0.000003 20.653503
								CHANNELS 3 Xrotation Yrotation Zrotation
								JOINT RightForeArmRoll
								{
									OFFSET 0.000000 -0.000002 7.957184
									CHANNELS 3 Xrotation Yrotation Zrotation
									JOINT RightHand
									{
										OFFSET 0.000000 -0.000002 15.968292
										CHANNELS 3 Xrotation Yrotation Zrotation
										End Site
										{
											OFFSET 0.000000 0.000000 0.100006
										}
									}
								}
							}
						}
					}
				}
				JOINT LeftShoulder
				{
					OFFSET 4.175751 0.581443 10.709595
					CHANNELS 3 Xrotation Yrotation Zrotation
					JOINT LeftArm
					{
						OFFSET 0.000000 -0.000002 14.046600
						CHANNELS 3 Xrotation Yrotation Zrotation
						JOINT LeftArmRoll
						{
							OFFSET 0.000000 -0.000002 7.090973
							CHANNELS 3 Xrotation Yrotation Zrotation
							JOINT LeftForeArm
							{
								OFFSET 0.000000 -0.000003 20.653503
								CHANNELS 3 Xrotation Yrotation Zrotation
								JOINT LeftForeArmRoll
								{
									OFFSET 0.000000 -0.000002 7.957184
									CHANNELS 3 Xrotation Yrotation Zrotation
									JOINT LeftHand
									{
										OFFSET 0.000000 -0.000002 15.968292
										CHANNELS 3 Xrotation Yrotation Zrotation
										End Site
										{
											OFFSET 0.000000 0.000000 0.100006
										}
									}
								}
							}
						}
					}
				}
			}
		}
	}
	JOINT RightUpLeg
	{
		OFFSET -7.208340 1.108840 -1.321823
		CHANNELS 3 Xrotation Yrotation Zrotation
		JOINT RightUpLegRoll
		{
			OFFSET 0.000000 -0.000003 18.723801
			CHANNELS 3 Xrotation Yrotation Zrotation
			JOINT RightLeg
			{
				OFFSET 0.000000 0.000004 -23.186600
				CHANNELS 3 Xrotation Yrotation Zrotation
				JOINT RightLegRoll
				{
					OFFSET 0.000000 -0.000004 23.262398
					CHANNELS 3 Xrotation Yrotation Zrotation
					JOINT RightFoot
					{
						OFFSET 0.000000 -0.000003 19.362106
						CHANNELS 3 Xrotation Yrotation Zrotation
						JOINT RightToeBase
						{
							OFFSET 0.000000 -0.000003 16.185699
							CHANNELS 3 Xrotation Yrotation Zrotation
							End Site
							{
								OFFSET 0.006859 0.903520 7.838623
							}
						}
					}
				}
			}
		}
	}
	JOINT LeftUpLeg
	{
		OFFSET 7.208340 1.108840 -1.321823
		CHANNELS 3 Xrotation Yrotation Zrotation
		JOINT LeftUpLegRoll
		{
			OFFSET 0.000000 -0.000003 18.723900
			CHANNELS 3 Xrotation Yrotation Zrotation
			JOINT LeftLeg
			{
				OFFSET 0.000000 -0.000004 23.186508
				CHANNELS 3 Xrotation Yrotation Zrotation
				JOINT LeftLegRoll
				{
					OFFSET 0.000000 -0.000004 23.477509
					CHANNELS 3 Xrotation Yrotation Zrotation
					JOINT LeftFoot
					{
						OFFSET 0.000000 -0.000003 19.147003
						CHANNELS 3 Xrotation Yrotation Zrotation
						JOINT LeftToeBase
						{
							OFFSET 0.000000 -0.000003 16.185699
							CHANNELS 3 Xrotation Yrotation Zrotation
							End Site
							{
								OFFSET -0.030746 0.903521 7.838623
							}
						}
					}
				}
			}
		}
	}
}
MOTION
Frames: 7
Frame Time: 0.041667
52.242599 -8.648250 96.090790 -3.574042 0.848872 2.063119 -1.513200 -0.367995 0.159561 0.977471 -0.731384 0.330360 2.622602 -0.727370 0.339103 10.701694 3.294342 -2.828636 4.245753 6.794719 -4.025144 -20.393526 -30.329318 -24.496864 -117.205486 -157.201544 -98.134013 -0.000000 0.000000 -0.000002 106.353422 -0.813524 0.163887 0.000001 0.000010 -3.000730 -5.000232 -7.999169 0.000103 -15.199783 62.187561 18.035017 -48.818897 112.703811 34.699666 -0.000001 0.000000 0.000004 0.063049 7.477858 1.140417 -0.000001 -0.000002 3.027071 -5.000233 7.998854 -0.000131 -2.392613 -173.562579 2.792640 179.999991 -0.000005 -0.996998 167.964051 -0.751114 -0.622145 0.000001 -0.000005 0.138163 70.307809 6.379221 3.408581 25.458161 -7.355622 0.001824 -1.432153 171.951488 -2.234630 -0.000005 -0.000004 -0.894062 -12.780080 1.162441 0.760846 0.000005 -0.000002 -0.100030 71.643268 -5.947319 -4.559995 25.459088 7.355623 -0.003217 
52.262001 -8.637879 96.081985 -3.574873 0.850240 2.067157 -1.513750 -0.367124 0.158354 0.976363 -0.729205 0.328450 2.621490 -0.725214 0.337167 10.704167 3.226370 -2.823336 4.260608 6.815853 -4.019314 -20.382493 -30.343621 -24.480971 -117.196921 -157.213510 -98.475584 0.000004 0.000000 -0.000004 106.715265 -0.763548 0.033175 0.000001 0.000010 -3.000721 -5.000231 -7.999173 0.000103 -15.202179 62.167385 18.037322 -48.788082 112.721856 34.657459 -0.000002 0.000002 0.000008 0.063045 7.470538 1.142316 -0.000001 -0.000001 3.027132 -5.000233 7.998855 -0.000134 -2.389993 -173.567565 2.790210 179.999991 -0.000005 -0.996998 167.964255 -0.749165 -0.621726 0.000001 -0.000004 0.138594 70.307324 6.379004 3.408672 25.458164 -7.355622 0.001824 -1.433425 171.948482 -2.237007 -0.000005 -0.000004 -0.894115 -12.785882 1.162531 0.760589 0.000004 -0.000002 -0.100468 71.646608 -5.947246 -4.560204 25.459090 7.355622 -0.003217 
52.261002 -8.642200 96.085175 -3.575667 0.851682 2.071298 -1.514332 -0.366293 0.157262 0.975190 -0.727248 0.326631 2.620319 -0.723280 0.335324 10.706398 3.162353 -2.817333 4.276449 6.833645 -4.012635 -20.370956 -30.355106 -24.464214 -117.187659 -157.223100 -98.815413 0.000005 -0.000002 -0.000005 107.073549 -0.713250 -0.097939 0.000002 0.000007 -3.000706 -5.000235 -7.999172 0.000105 -15.203542 62.149571 18.038477 -48.762698 112.736555 34.623216 -0.000002 0.000002 0.000008 0.063039 7.464686 1.143952 0.000000 -0.000002 3.027189 -5.000234 7.998855 -0.000134 -2.387429 -173.571540 2.787743 179.999991 -0.000005 -0.996998 167.964365 -0.747214 -0.621309 0.000001 -0.000004 0.139001 70.307085 6.378893 3.408466 25.458164 -7.355621 0.001824 -1.434704 171.944494 -2.239439 -0.000004 -0.000004 -0.894164 -12.791484 1.162620 0.760399 0.000005 -0.000002 -0.100899 71.649887 -5.947264 -4.560132 25.459086 7.355623 -0.003217 
52.245300 -8.642257 96.083496 -3.576389 0.853212 2.075495 -1.514962 -0.365517 0.156303 0.973936 -0.725561 0.324923 2.619068 -0.721616 0.333595 10.708387 3.103027 -2.810546 4.293380 6.847438 -4.005010 -20.358818 -30.363282 -24.446801 -117.177414 -157.229998 -99.152791 0.000001 -0.000002 -0.000005 107.428781 -0.662833 -0.230404 0.000001 0.000011 -3.000712 -5.000233 -7.999170 0.000104 -15.203692 62.134552 18.038301 -48.740261 112.748255 34.594464 -0.000002 0.000003 0.000009 0.063034 7.460619 1.145279 0.000000 -0.000002 3.027250 -5.000229 7.998853 -0.000134 -2.384938 -173.575515 2.785308 179.999991 -0.000005 -0.996998 167.964365 -0.746225 -0.621098 0.000001 -0.000005 0.139375 70.307304 6.378935 3.407759 25.458162 -7.355621 0.001823 -1.435941 171.940505 -2.241947 -0.000005 -0.000004 -0.894213 -12.796784 1.162723 0.760288 0.000005 -0.000002 -0.101320 71.652974 -5.947373 -4.559784 25.459088 7.355624 -0.003217 
52.243900 -8.643028 96.081894 -3.577059 0.854848 2.079737 -1.515630 -0.364810 0.155501 0.972578 -0.724197 0.323348 2.617708 -0.720272 0.332002 10.710243 3.049107 -2.802908 4.311529 6.856551 -3.996288 -20.345918 -30.367404 -24.428416 -117.166158 -157.233687 -99.487081 0.000001 -0.000003 -0.000005 107.781485 -0.612531 -0.364187 0.000001 0.000011 -3.000702 -5.000234 -7.999175 0.000103 -15.202527 62.122947 18.036662 -48.722331 112.756226 34.573321 -0.000001 0.000002 0.000009 0.063029 7.458626 1.146210 -0.000001 -0.000001 3.027308 -5.000233 7.998856 -0.000132 -2.382529 -173.580501 2.782944 179.999991 -0.000005 -0.996998 167.964269 -0.744274 -0.620683 0.000001 -0.000004 0.139715 70.307993 6.379128 3.406753 25.458168 -7.355621 0.001824 -1.437127 171.936502 -2.244551 -0.000005 -0.000004 -0.894260 -12.801786 1.162847 0.760273 0.000005 -0.000002 -0.101724 71.655883 -5.947579 -4.559165 25.459088 7.355622 -0.003216 
52.236805 -8.659559 96.090401 -3.577632 0.856603 2.084006 -1.516370 -0.364185 0.154873 0.971093 -0.723204 0.321924 2.616217 -0.719299 0.330566 10.711869 3.001314 -2.794309 4.331038 6.860314 -3.986363 -20.332249 -30.366895 -24.408863 -117.153536 -157.233864 -99.817655 0.000002 0.000000 -0.000006 108.132167 -0.562206 -0.498305 0.000001 0.000011 -3.000704 -5.000235 -7.999170 0.000103 -15.199734 62.114895 18.033217 -48.711772 112.758876 34.563339 -0.000002 0.000001 0.000006 0.063025 7.459009 1.146718 0.000000 -0.000002 3.027361 -5.000233 7.998854 -0.000132 -2.380231 -173.584490 2.780575 179.999991 -0.000005 -0.996998 167.963969 -0.743298 -0.620480 0.000002 -0.000004 0.140009 70.309284 6.379544 3.404951 25.458166 -7.355622 0.001824 -1.438217 171.932513 -2.247288 -0.000005 -0.000004 -0.894305 -12.806289 1.162982 0.760358 0.000005 -0.000002 -0.102107 71.658513 -5.947902 -4.558277 25.459090 7.355625 -0.003217 
52.243805 -8.656367 96.088692 -3.578260 0.858471 2.088221 -1.517150 -0.363608 0.154430 0.969527 -0.722610 0.320635 2.614656 -0.718724 0.329266 10.713264 2.959931 -2.784207 4.352715 6.859222 -3.974774 -20.318006 -30.361045 -24.388647 -117.139069 -157.231460 -100.144787 0.000001 -0.000002 -0.000008 108.480261 -0.511717 -0.633747 0.000002 0.000012 -3.000692 -5.000232 -7.999173 0.000107 -15.194994 62.110933 18.027629 -48.704805 112.757441 34.560723 -0.000001 0.000001 0.000007 0.063020 7.461978 1.146757 -0.000002 -0.000002 3.027420 -5.000232 7.998854 -0.000135 -2.377945 -173.589476 2.778267 179.999991 -0.000005 -0.997995 167.963477 -0.742322 -0.620278 0.000001 -0.000004 0.140267 70.311149 6.380116 3.402645 25.458161 -7.355622 0.001823 -1.439101 171.928511 -2.250205 -0.000005 -0.000003 -0.894361 -12.810590 1.163147 0.760553 0.000006 -0.000002 -0.102517 71.661081 -5.948379 -4.556916 25.459090 7.355623 -0.003216 
